
<svg width="518" height="518" viewBox="0 0 518 518" fill="none" xmlns="http://www.w3.org/2000/svg">
<path d="M178.244 401.771C182.167 401.916 187.568 401.909 192.941 401.795C202.659 401.585 212.197 401.025 212.328 400.379C213.651 400.148 213.154 354.195 212.104 351.273C210.954 348.086 199.233 349.722 195.814 349.722C191.643 349.722 185.454 349.508 181.255 349.833C177.874 350.092 174.811 350.828 174.604 354.623C173.989 365.908 174.545 383.976 174.566 396.812C174.57 400.041 174.431 401.623 178.244 401.771Z" fill="white"/>
<path d="M164.914 270.817C171.081 267.585 170.066 262.184 174.466 257.349L161.036 265.983C158.384 269.581 161.478 272.62 164.914 270.817Z" fill="white"/>
<path d="M158.888 257.032L168.626 229.405L174.884 257.508L186.363 255.405C183.803 261.275 181.65 267.314 179.919 273.48C177.187 283.222 171.368 320.414 173.969 327.245L176.472 327.266C175.571 328.592 154.312 350.058 162.907 349.27C169.789 348.637 176.704 348.447 183.61 348.7C184.646 348.742 193.708 348.725 203.059 348.517C204.227 348.49 206.395 343.876 207.549 343.845C208.899 343.807 209.241 348.334 210.539 348.307C218.182 348.034 224.508 347.595 224.698 346.925C224.846 346.352 226.021 330.484 226.162 327.663H226.404L226.166 317.993L236.847 319.668C235.465 342.56 233.991 372.722 235.597 376.942H247.172C242.852 380.851 221.383 399.009 231.145 398.273C239.641 397.643 248.164 397.454 256.679 397.707C257.954 397.745 269.135 397.727 280.67 397.524C282.11 397.496 284.786 392.882 286.216 392.848C287.887 392.813 288.305 397.358 289.911 397.31C299.335 397.04 307.136 396.619 307.354 395.928C307.55 395.313 309.215 376.983 309.173 376.244H309.104C309.571 372.259 308.963 351.726 308.828 338.554C309.256 339.912 347.364 339.072 351.221 339.072C376.431 339.072 383.337 322.742 387.733 301.348C391.929 280.974 396.674 250.412 396.94 243.515C397.285 234.291 388.458 226.159 378.703 224.933C370.069 223.849 343.361 223.655 334.055 224.494C321.588 199.948 308.158 193.957 299.404 196.84C299.328 195.165 299.19 193.504 298.99 191.891C298.53 188.214 298.188 182.882 297.954 177.733C299.062 177.864 298.62 177.961 299.791 177.961C302.716 177.961 306.179 162.421 307.074 159.368C308.593 154.188 307.882 147.53 303.524 144.191C297.684 139.701 280.535 133.271 274.236 135.854C263.413 140.288 267.001 149.253 274.115 151.512C271.753 154.067 269.581 157.482 267.816 161.657C266.863 160.955 265.709 160.577 264.525 160.58C263.001 160.58 261.54 161.185 260.462 162.263C259.384 163.341 258.779 164.802 258.779 166.326C258.779 167.85 259.384 169.312 260.462 170.39C261.54 171.467 263.001 172.073 264.525 172.073C264.584 172.073 264.639 172.073 264.698 172.073C263.902 176.132 263.469 180.255 263.406 184.391C263.244 193.024 276.874 193.169 276.895 193.497C277.24 196.26 279.737 204.465 280.4 209.531C276.909 207.722 270.386 206.768 257.125 209.22L244.534 211.555C243.541 210.818 242.611 210 241.754 209.11C237.472 204.745 242.752 195.604 233.172 192.558C233.079 192.074 232.993 191.577 232.92 191.073L228.317 163.236C227.941 162.096 227.447 159.188 224.304 159.544L209.324 161.53C204.275 162.117 205.156 165.145 205.87 169.431L207.2 178.361C202.272 179.342 207.352 189.882 207.939 191.729C204.32 184.18 201.93 191.146 204.707 198.263C207.19 204.631 208.937 210.204 215.277 216.956L167.808 225.748L168.626 229.415C155.476 231.304 143.593 238.28 137.95 246.913L124.534 244.772L123.598 249.106L135.747 251.154C134.851 253.386 134.427 255.778 134.5 258.182C134.645 262.056 138.769 260.637 138.99 262.875C139.452 267.851 145.617 267.606 146.173 264.322C146.107 264.626 145.302 269.951 146.998 271.988C149.011 274.405 152.82 274.834 154.488 269.633C154.452 269.829 154.429 270.028 154.419 270.227M235.863 246.344L249.224 254.487C246.779 259.988 244.689 265.64 242.966 271.408C240.549 266.421 238.352 261.652 237.886 260.644C235.636 255.94 232.813 251.532 229.481 247.521L235.863 246.344ZM308.811 338.548C308.787 336.196 308.78 334.079 308.811 332.332L310.192 332.439L308.811 338.548Z" fill="white"/>
<path d="M284.555 167.342C284.533 166.092 284.142 164.876 283.432 163.848C282.722 162.819 281.724 162.023 280.563 161.56C279.402 161.097 278.13 160.987 276.907 161.244C275.684 161.501 274.564 162.114 273.688 163.005C272.811 163.897 272.218 165.027 271.982 166.255C271.746 167.482 271.878 168.752 272.361 169.905C272.845 171.057 273.658 172.042 274.698 172.734C275.739 173.426 276.961 173.796 278.211 173.796C279.907 173.78 281.528 173.091 282.718 171.881C283.907 170.671 284.568 169.038 284.555 167.342ZM278.211 172.38C277.21 172.402 276.225 172.125 275.382 171.585C274.539 171.045 273.876 170.266 273.478 169.348C273.08 168.429 272.964 167.413 273.146 166.428C273.327 165.444 273.798 164.536 274.498 163.82C275.198 163.104 276.096 162.613 277.076 162.41C278.056 162.206 279.075 162.299 280.002 162.677C280.929 163.055 281.723 163.701 282.281 164.531C282.84 165.362 283.139 166.341 283.139 167.342C283.145 167.997 283.022 168.647 282.778 169.255C282.533 169.863 282.17 170.417 281.712 170.884C281.253 171.352 280.706 171.725 280.103 171.982C279.5 172.238 278.852 172.374 278.197 172.38H278.211Z" fill="black"/>
<path d="M126.737 222.529C118.346 229.336 118.757 231.163 121.171 235.493C121.995 236.889 122.702 238.351 123.284 239.865L124.614 239.375C124.009 237.793 123.275 236.264 122.421 234.802C120.373 231.135 119.751 230.03 127.642 223.631C130.059 221.663 131.292 219.687 131.386 217.584C131.548 213.948 128.326 210.816 124.914 207.497C121.502 204.178 117.931 200.708 118.284 196.906C118.543 194.088 120.88 191.249 125.425 188.227C131.665 184.083 129.724 179.473 127.842 175.018C126.886 172.75 125.898 170.401 125.898 168.015H124.482C124.482 170.688 125.518 173.171 126.537 175.571C128.416 180.026 129.897 183.548 124.634 187.046C119.71 190.324 117.168 193.504 116.864 196.774C116.45 201.264 120.249 204.942 123.919 208.516C127.096 211.624 130.097 214.525 129.963 217.525C129.887 219.193 128.833 220.834 126.737 222.529Z" fill="black"/>
<path d="M195.2 356.066C194.803 359.806 194.754 364.945 194.754 368.999V369.507C194.754 371.9 194.754 373.105 195.538 373.851C196.046 374.331 196.754 374.48 197.842 374.48C198.187 374.48 198.553 374.48 198.964 374.445C199.572 374.41 200.425 374.407 201.326 374.404C202.489 374.427 203.652 374.388 204.81 374.286C207.418 373.941 208.143 373.374 208.333 371.572C208.333 371.475 208.578 357.617 208.385 356.539C207.846 353.552 206.102 353.594 202.631 353.673L201.623 353.694C201.046 353.694 200.483 353.694 199.934 353.659C197.845 353.559 195.459 353.466 195.2 356.066Z" fill="black"/>
<path d="M204.707 377.612C204.161 377.612 203.543 377.612 202.869 377.563C198.829 377.322 196.533 377.695 195.428 378.775C195.127 379.093 194.9 379.471 194.76 379.885C194.621 380.299 194.573 380.738 194.619 381.172C194.727 383.935 194.661 389.184 194.619 392.665C194.599 394.433 194.581 395.717 194.595 396.118C194.596 396.301 194.632 396.483 194.704 396.652C194.775 396.821 194.879 396.974 195.01 397.102C195.825 397.917 197.641 397.91 200.159 397.903C200.797 397.903 201.457 397.903 202.113 397.903H202.158C202.548 397.903 202.952 397.903 203.36 397.903C205.939 397.903 208.64 397.558 208.885 394.626C209.158 391.332 209.11 384.266 208.958 380.872C208.809 377.629 206.906 377.619 204.707 377.612Z" fill="black"/>
<path d="M204.71 200.293C206.81 205.767 208.713 210.726 213.868 216.5L167.68 225.054L166.958 225.185L167.77 228.835C158.943 230.244 150.303 234.015 143.942 239.285C141.514 241.264 139.377 243.574 137.591 246.147L123.975 243.975L122.752 249.676L134.784 251.707C134.057 253.794 133.721 255.997 133.792 258.206C133.893 260.896 135.723 261.542 136.932 261.97C137.933 262.315 138.23 262.491 138.271 262.933C138.548 265.924 140.706 267.336 142.719 267.423C143.595 267.465 144.463 267.249 145.216 266.801C145.154 268.683 145.327 271.111 146.439 272.447C146.9 273.041 147.487 273.526 148.156 273.868C148.826 274.21 149.562 274.402 150.313 274.43C150.599 274.43 150.884 274.398 151.163 274.336C152.171 274.115 153.925 273.276 155.017 270.234H155.113C155.118 270.099 155.133 269.965 155.158 269.833C155.217 269.64 155.279 269.439 155.334 269.229H155.269C155.783 266.587 157.434 260.064 157.938 259.173C158.926 257.415 160.915 256.486 162.196 256.638C162.494 256.653 162.779 256.761 163.012 256.947C163.245 257.133 163.414 257.387 163.495 257.674C163.495 258.289 163.391 262.098 160.822 265.123C158.805 267.495 159.15 269.657 160.055 270.79C160.395 271.207 160.826 271.54 161.315 271.765C161.804 271.989 162.338 272.099 162.876 272.085C163.704 272.072 164.517 271.86 165.245 271.467C169.099 269.446 170.294 266.656 171.562 263.707C172.328 261.918 173.122 260.074 174.583 258.316L185.195 256.372C182.85 261.88 180.858 267.532 179.231 273.293C176.71 282.296 170.553 320.279 173.302 327.511L173.475 327.963H174.922L174.027 328.94C164.838 338.955 158.998 346.207 160.359 348.946C160.704 349.636 161.412 349.982 162.465 349.982C162.624 349.982 162.811 349.982 162.97 349.957C168.44 349.458 173.932 349.238 179.425 349.298C177.056 349.66 174.107 350.724 173.899 354.568C173.468 362.476 173.606 373.468 173.741 384.101C173.796 388.642 173.851 392.931 173.858 396.795V397.14C173.858 400.148 173.858 402.32 178.216 402.479C180.195 402.552 182.619 402.59 185.282 402.59C189.636 402.59 194.637 402.493 199.378 402.31C210.923 401.868 212.604 401.346 212.932 400.79C212.966 400.749 212.996 400.705 213.022 400.659C213.91 399.129 213.868 382.951 213.806 376.068C213.734 367.638 213.433 352.882 212.77 351.031C212.045 349.022 208.647 348.548 204.275 348.614C204.869 347.988 205.408 347.312 205.888 346.594C206.382 345.903 207.19 344.781 207.566 344.577C207.835 344.784 208.212 345.803 208.419 346.362C208.909 347.689 209.417 349.046 210.574 349.022C225.016 348.507 225.192 347.823 225.378 347.098C225.585 346.29 226.532 332.49 226.801 328.374H227.122L226.884 318.812L236.087 320.252C234.706 342.947 233.255 372.791 234.923 377.18L235.099 377.636H245.304L245.031 377.878C233.943 387.685 226.815 394.82 228.058 397.762C228.403 398.577 229.26 398.988 230.61 398.988C230.793 398.988 230.987 398.988 231.187 398.967C239.658 398.339 248.157 398.15 256.648 398.401C257.94 398.442 269.135 398.421 280.673 398.218C281.709 398.197 282.745 397.009 283.974 395.635C284.613 394.913 285.805 393.563 286.223 393.542C286.599 393.542 287.127 394.702 287.445 395.393C288.036 396.695 288.661 398.049 289.918 398.004C307.578 397.496 307.792 396.826 308.017 396.122C308.317 395.172 309.874 376.32 309.868 376.199L309.843 375.709C309.957 374.272 309.995 371.658 309.954 366.844H315.165L319.779 397.748C318.791 398.535 317.606 399.52 317.385 399.772C318.104 399.661 324.047 400.007 323.981 399.772C324.655 399.772 325.515 399.81 326.347 399.83L326.692 399.886V399.841C328.122 399.879 329.382 399.893 329.351 399.782C329.272 399.506 327.856 398.093 327.069 397.278L331.313 368.478H374.403L379.842 397.358C379.041 398.183 377.712 399.513 377.636 399.775C377.56 400.038 383.506 399.668 384.232 399.775C383.966 399.471 382.308 398.114 381.276 397.306L369.655 335.612C372.807 333.856 375.584 331.499 377.829 328.675C383.759 321.295 386.514 310.79 388.427 301.49C392.692 280.77 397.406 250.294 397.648 243.539C397.993 234.398 389.36 225.555 378.793 224.228C370.57 223.192 344.494 222.923 334.466 223.745C328.871 212.819 322.748 204.89 316.246 200.159C310.721 196.132 305.009 194.633 300.067 195.918C299.988 194.499 299.863 193.117 299.701 191.812C299.266 188.359 298.938 183.396 298.717 178.603C299.075 178.675 299.44 178.703 299.805 178.686C302.305 178.686 304.47 172.252 307.157 161.879C307.419 160.863 307.626 160.059 307.768 159.582C309.274 154.461 308.724 147.288 303.969 143.641C298.168 139.197 280.625 132.491 273.981 135.212C267.443 137.892 266.615 141.818 266.701 143.921C266.832 147.195 269.339 150.32 272.917 151.826C271.797 153.151 270.785 154.565 269.892 156.053C269.006 157.526 268.215 159.055 267.523 160.628C266.606 160.125 265.578 159.862 264.532 159.862C262.896 159.89 261.332 160.538 260.155 161.674C258.978 162.811 258.276 164.352 258.191 165.986C258.106 167.62 258.644 169.226 259.697 170.479C260.749 171.731 262.238 172.538 263.862 172.736C263.157 176.572 262.769 180.46 262.702 184.36C262.557 192.237 272.554 193.563 275.825 194.001L276.26 194.06C276.474 195.355 276.971 197.351 277.537 199.62C278.256 202.497 279.053 205.701 279.499 208.343C275.631 206.851 268.997 206.271 256.99 208.509L244.71 210.781C243.836 210.117 243.014 209.388 242.251 208.599C240.749 207.062 240.556 204.765 240.355 202.331C240.027 198.387 239.665 194.043 233.794 192.002C233.732 191.657 233.67 191.311 233.618 190.966L229.015 163.101L228.987 162.99C228.949 162.88 228.915 162.756 228.873 162.614C228.5 161.364 227.633 158.432 224.208 158.815L209.237 160.798C207.348 161.019 206.078 161.595 205.352 162.562C204.23 164.068 204.6 166.219 205.031 168.709C205.076 168.972 205.124 169.244 205.169 169.503L206.392 177.847C205.732 178.108 205.189 178.598 204.862 179.228C203.733 181.3 204.651 184.909 205.698 187.861C205.495 187.774 205.277 187.729 205.057 187.729C204.837 187.729 204.619 187.774 204.417 187.861C202.389 188.742 202.203 193.808 204.03 198.494C204.261 199.116 204.486 199.706 204.71 200.293ZM204.983 189.194C205.005 189.19 205.027 189.19 205.049 189.194C205.335 189.194 206.143 189.678 207.276 192.033C207.789 193.391 208.382 194.717 209.051 196.004C209.365 196.612 209.693 197.23 210.039 197.848C210.097 197.952 210.156 198.052 210.211 198.156L210.999 199.796L211.689 201.264L211.299 200.034C212.166 201.468 213.081 202.87 213.982 204.178L214.466 204.869C214.628 205.1 214.794 205.328 214.956 205.56C215.364 206.116 215.764 206.644 216.151 207.134C216.199 207.274 216.284 207.398 216.396 207.493C216.509 207.588 216.645 207.652 216.79 207.677L217.108 206.295C217.195 206.325 217.275 206.374 217.341 206.439C217.407 206.503 217.459 206.582 217.491 206.668C217.442 206.523 217.369 206.387 217.273 206.268C217.035 205.967 216.79 205.646 216.545 205.318C216.389 205.111 216.23 204.904 216.072 204.686C215.913 204.468 215.768 204.265 215.616 204.051C213.688 201.353 211.949 198.526 210.408 195.59C210.035 194.872 209.69 194.164 209.372 193.48C209.054 192.796 208.792 192.147 208.564 191.525C208.495 191.315 208.388 191.032 208.239 190.662C208.191 190.534 208.136 190.396 208.074 190.244C207.114 187.827 204.865 182.184 206.081 179.946C206.202 179.72 206.374 179.526 206.585 179.38C206.795 179.244 207.03 179.151 207.276 179.107H207.31C207.541 179.06 207.779 179.076 208.001 179.152C208.92 179.477 209.593 180.879 210.36 182.75C210.705 184.581 213.813 189.716 217.108 195.017C217.543 195.707 217.954 196.374 218.012 196.488C217.971 196.397 217.95 196.298 217.95 196.198H219.366C219.366 195.959 219.366 195.959 218.309 194.267C217.045 192.24 214.259 187.768 212.749 184.847C212.747 184.728 212.721 184.61 212.673 184.501C211.406 181.525 211.054 178.976 211.8 178.196C212.359 177.598 213.675 177.895 214.68 178.251C215.467 178.568 217.926 182.699 219.901 186.014C222.533 190.434 225.516 195.441 227.948 197.917C228.084 198.066 228.213 198.222 228.334 198.384C228.711 198.86 229.177 199.451 229.792 199.717C229.857 199.764 229.933 199.795 230.012 199.808C230.092 199.822 230.174 199.816 230.251 199.793L233.048 199.368L230.51 198.47C229.301 197.344 225.9 193.214 226.235 192.375C226.388 192.311 226.557 192.289 226.722 192.313C228.688 192.357 230.642 192.631 232.544 193.131C232.81 193.207 233.069 193.287 233.314 193.369C233.559 193.452 233.849 193.57 234.098 193.677C238.356 195.517 238.643 198.933 238.933 202.493C239.147 205.069 239.368 207.735 241.229 209.635C241.813 210.229 242.351 210.733 242.863 211.168C243.108 211.379 243.346 211.572 243.577 211.755C243.809 211.938 244.102 212.152 244.358 212.332C245.256 212.964 246.102 213.444 247.01 213.962C247.804 214.411 248.619 214.873 249.559 215.492L238.567 237.013L223.824 223.731L223.783 223.697C221.278 221.783 218.902 219.706 216.669 217.481L216.075 216.869C215.882 216.662 215.685 216.458 215.498 216.255C210.052 210.36 208.139 205.373 206.019 199.848C205.794 199.261 205.57 198.67 205.328 198.073C203.519 193.307 204.202 189.526 204.983 189.187V189.194ZM208.519 167.559C208.011 167.59 207.566 167.048 207.525 166.347C207.483 165.646 207.87 165.049 208.36 165.014C208.851 164.98 209.31 165.525 209.355 166.226C209.4 166.927 209.023 167.518 208.519 167.552V167.559ZM279.886 210.059C280.29 210.262 280.681 210.493 281.053 210.75C281.689 211.189 282.261 211.714 282.752 212.311C283.168 212.834 283.541 213.389 283.867 213.972C284.503 215.039 285.1 216.044 286.416 216.044C286.761 216.044 287.058 216.044 287.338 216.027C288.088 215.969 288.842 216.029 289.572 216.206C289.7 217.38 289.918 218.89 290.242 220.616C290.291 220.879 290.339 221.148 290.391 221.421L290.536 222.198C291.9 229.346 294.265 239.181 295.768 244.537L250.629 214.424C249.531 213.692 248.578 213.147 247.728 212.667C247.276 212.408 246.837 212.159 246.399 211.897L257.259 209.883C270.123 207.511 276.488 208.374 279.886 210.059ZM277.596 193.387C277.524 192.789 277.082 192.731 276.015 192.589C273.038 192.195 263.987 190.99 264.111 184.38C264.173 180.464 264.572 176.56 265.302 172.712C266.524 172.538 267.671 172.019 268.607 171.215C269.544 170.412 270.231 169.358 270.589 168.176C270.946 166.995 270.959 165.737 270.625 164.549C270.291 163.361 269.624 162.293 268.704 161.471C270.097 158.135 272.004 155.037 274.357 152.292C278.428 153.19 287.455 155.635 288.457 156.664C288.761 158.246 288.429 160.739 288.074 163.374C287.383 168.554 286.665 173.906 290.266 175.177C291.12 175.52 291.943 175.936 292.725 176.42C294.169 177.253 295.661 178.106 297.277 178.258C297.501 183.21 297.84 188.376 298.289 191.978C298.465 193.401 298.589 194.868 298.668 196.353C291.896 198.891 288.091 206.42 289.344 214.701C288.672 214.597 287.99 214.565 287.31 214.604C287.041 214.604 286.751 214.604 286.423 214.604C285.957 214.604 285.701 214.259 285.093 213.223C284.361 211.986 283.367 210.332 281.056 209.041C280.645 206.178 279.734 202.51 278.922 199.257C278.283 196.74 277.738 194.55 277.596 193.387ZM264.525 161.271C265.376 161.273 266.21 161.502 266.943 161.934C267.151 162.053 267.35 162.189 267.537 162.341C267.742 162.504 267.933 162.683 268.11 162.877C268.965 163.815 269.438 165.039 269.436 166.309C269.442 167.44 269.067 168.54 268.371 169.431C267.675 170.322 266.698 170.952 265.599 171.22C265.346 171.276 265.088 171.313 264.829 171.33C264.726 171.33 264.619 171.33 264.511 171.33C264.404 171.33 264.252 171.33 264.125 171.313C262.868 171.16 261.715 170.539 260.894 169.575C260.074 168.61 259.647 167.372 259.697 166.107C259.748 164.842 260.272 163.642 261.167 162.746C262.061 161.85 263.26 161.323 264.525 161.271ZM334.524 227.036C334.808 227.62 335.094 228.214 335.377 228.808L335.788 229.667C335.923 229.954 336.061 230.241 336.199 230.531C341.797 242.31 347.612 255.447 352.799 267.167C355.479 273.217 358.017 278.96 360.11 283.553H334.742C338.002 274.388 334.714 258.931 332.449 248.295C331.996 246.157 331.575 244.178 331.254 242.479C331.171 242.03 331.092 241.599 331.023 241.188C330.943 240.708 330.871 240.255 330.815 239.841C330.774 239.53 330.739 239.237 330.712 238.967V238.919C329.351 230.776 325.646 224.501 319.703 220.271C312.917 215.436 304.612 214.193 298.52 214.055H297.757H297.011C294.914 214.059 292.819 214.196 290.74 214.466C289.652 207.058 292.891 200.342 298.737 197.89C298.968 197.793 299.198 197.703 299.428 197.621L299.546 197.576C299.735 197.51 299.929 197.455 300.122 197.399C308.766 194.92 322.148 201.44 334.521 227.043L334.524 227.036ZM308.462 375.529C308.445 375.806 308.424 376.04 308.4 376.22H236.115C234.82 370.833 236.156 342.695 237.496 320.473L237.537 319.761C237.537 319.527 237.569 319.288 237.582 319.054C238.273 307.637 238.964 297.988 239.264 294.134C239.768 287.645 241.119 280.552 243.142 273.38C243.239 273.034 243.336 272.689 243.436 272.361C243.536 272.033 243.633 271.691 243.733 271.356C245.349 265.961 247.291 260.669 249.548 255.509C249.641 255.291 249.742 255.074 249.838 254.856L250.125 254.203C250.816 252.682 251.527 251.185 252.259 249.714C252.563 249.099 252.871 248.49 253.185 247.887C253.488 247.297 253.796 246.717 254.107 246.14C254.567 245.274 255.041 244.418 255.529 243.571C259.369 236.861 264.197 233.577 269.878 233.836C281.965 234.371 294.825 250.329 299.715 260.948C300.302 262.229 303.054 268.138 305.72 273.632C308.503 279.354 309.988 282.193 310.859 283.595C311.045 283.888 311.204 284.123 311.335 284.285C311.715 284.796 311.933 284.914 312.123 284.935C312.175 284.94 312.229 284.94 312.281 284.935H313.663H332.58H334.169L360.759 284.952C360.769 284.975 360.777 285 360.783 285.024C364.648 296.189 363.263 307.899 357.116 315.697C350.037 324.676 337.201 328.429 320.01 326.516H309.995C310.033 325.653 309.995 324.151 309.864 321.378C309.609 315.307 309.135 304.004 311.187 301.866C311.245 301.791 311.32 301.729 311.406 301.686C311.491 301.643 311.585 301.62 311.681 301.618V300.202C311.394 300.206 311.111 300.269 310.85 300.388C310.589 300.507 310.356 300.679 310.165 300.892C307.882 303.272 308.051 311.971 308.438 321.443C308.538 323.816 308.642 326.261 308.538 326.872C308.296 327.276 308.151 328.346 308.11 331.551C308.11 331.776 308.11 332.014 308.11 332.263C308.11 332.511 308.11 332.725 308.11 332.953C308.11 336.662 308.172 342.581 308.345 352.067C308.421 356.415 308.51 361.208 308.552 365.397C308.552 365.877 308.552 366.35 308.552 366.813C308.579 370.715 308.566 373.917 308.459 375.529H308.462ZM231.052 287.207H231.028C229.792 287.207 228.98 289.144 227.92 292.711C227.851 292.946 227.771 293.216 227.747 293.274C226.877 295.422 226.211 305.316 225.496 317.158H225.427L225.661 326.547H176.483H176.11H174.48C172.383 318.95 177.867 283.415 180.595 273.677C182.289 267.673 184.383 261.789 186.863 256.065C186.977 255.802 187.091 255.543 187.209 255.284C187.326 255.025 187.437 254.759 187.554 254.5C189.263 250.674 191.118 247 193.079 243.581C196.919 236.871 201.747 233.59 207.424 233.846C214.701 234.167 222.274 240.083 228.189 247.055L228.711 247.677C228.883 247.887 229.056 248.094 229.225 248.305C232.393 252.181 235.085 256.422 237.244 260.937C237.758 262.049 239.903 266.666 242.213 271.473C239.92 279.254 238.394 286.986 237.845 294.027C237.821 294.31 237.019 305.078 236.17 318.833L226.891 317.379C227.416 308.649 228.196 295.913 229.049 293.806C229.094 293.696 229.149 293.513 229.267 293.116C230.14 290.17 230.672 289.117 230.966 288.754C231.099 289.037 231.2 289.333 231.27 289.638L232.651 289.293C232.509 288.726 232.133 287.228 231.052 287.207ZM168.661 226.311L215.004 217.726C217.462 220.26 220.104 222.609 222.909 224.753L237.904 238.28L233.818 245.94L233.918 245.998L229.774 246.761C223.527 239.271 215.381 232.775 207.497 232.43C201.243 232.15 195.984 235.666 191.86 242.876C189.661 246.745 187.667 250.726 185.886 254.804L175.429 256.7L168.661 226.311ZM239.002 239.25L239.42 238.435L251.161 216.469L294.98 245.698C296.804 247.127 309.322 255.782 310.351 256.303C310.731 256.508 311.097 256.739 311.446 256.994C312.302 257.598 313.273 258.278 314.495 258.278V256.862C313.721 256.862 313.014 256.365 312.261 255.826C311.857 255.526 311.433 255.256 310.99 255.018C309.954 254.487 301.486 248.595 297.66 245.877C296.279 241.333 293.54 230.21 292.01 222.274C291.962 222.036 291.921 221.804 291.876 221.583C291.831 221.362 291.786 221.11 291.744 220.893C291.447 219.276 291.213 217.836 291.054 216.669C291.019 216.376 290.985 216.096 290.961 215.84H290.985C292.819 215.624 294.663 215.508 296.51 215.495H297.27H298.05C304 215.602 312.285 216.738 318.867 221.428C324.482 225.43 327.991 231.387 329.289 239.13C329.375 240.017 329.545 241.101 329.769 242.327C329.842 242.735 329.925 243.16 330.011 243.598C330.097 244.037 330.173 244.417 330.259 244.845C330.501 246.019 330.767 247.262 331.047 248.595C333.323 259.276 336.652 274.923 333.226 283.553H314.233H312.506C311.125 281.865 304.418 267.792 300.999 260.371C295.964 249.438 282.61 232.996 269.94 232.44C263.831 232.171 258.665 235.521 254.587 242.4L254.3 242.887C254.086 243.263 253.875 243.643 253.661 244.023C253.35 244.582 253.039 245.145 252.736 245.715C251.389 248.229 250.111 250.829 248.909 253.489L237.824 246.734L236.916 246.181L236.008 245.625L235.693 245.435L238.984 239.268L239.002 239.25ZM248.326 254.766C246.22 259.563 244.383 264.473 242.825 269.474C241.239 266.159 239.696 262.868 238.535 260.343C236.431 255.943 233.824 251.8 230.769 247.998L235.728 247.09L248.326 254.766ZM136.783 247.449L138.33 247.694L142.046 248.295L143.514 248.53L149.184 249.424L148.148 252.532L142.25 251.537L140.834 251.299L136.769 250.608L135.305 250.363L124.458 248.533L125.097 245.58L136.783 247.449ZM137.412 260.644C136.22 260.226 135.281 259.891 135.215 258.161C135.15 256.043 135.493 253.933 136.227 251.945L140.399 252.636C139.583 255.411 138.942 258.234 138.479 261.089C138.132 260.915 137.773 260.766 137.405 260.644H137.412ZM142.781 266.007C141.431 265.959 139.915 265.099 139.691 262.847C139.708 261.853 140.592 256.956 141.811 252.898L148.075 253.955C146.577 257.912 145.489 262.084 145.461 264.242C145.226 265.458 143.942 266.055 142.775 266.007H142.781ZM173.948 256.873C172.059 258.945 171.147 261.072 170.267 263.127C169.051 265.959 168.001 268.403 164.593 270.189C163.046 271.004 161.758 270.624 161.167 269.885C160.577 269.146 160.452 267.734 161.906 266.021C165.066 262.305 164.924 257.709 164.914 257.515V257.429L164.893 257.346C164.744 256.773 164.421 256.261 163.969 255.879C163.517 255.497 162.958 255.264 162.369 255.212C160.355 254.98 157.879 256.403 156.712 258.461C156.084 259.58 154.247 266.853 153.805 269.446C153.155 271.439 152.126 272.679 150.869 272.955C149.743 273.204 148.452 272.658 147.537 271.543C146.2 269.933 146.684 265.496 146.846 264.574C146.846 264.532 146.863 264.491 146.87 264.446L146.266 264.329H146.881C146.881 260.53 151.004 248.564 153.974 246.123L153.076 245.028C152.306 245.66 151.491 246.799 150.686 248.229L143.624 247.103L143.144 246.644C143.042 246.754 142.947 246.869 142.857 246.989L139.211 246.406C144.802 238.612 155.676 232.171 168.091 230.223L174.048 256.956L173.948 256.873ZM178.275 401.063C175.281 400.956 175.281 400.148 175.281 397.14V396.795C175.281 392.924 175.219 388.631 175.163 384.087C175.029 373.478 174.891 362.507 175.319 354.647C175.485 351.587 177.736 350.8 181.314 350.524C183.099 350.389 185.254 350.348 187.464 350.348C188.845 350.348 190.227 350.365 191.581 350.379C189.712 352.319 189.768 355.942 189.816 359.033C189.816 359.527 189.816 360.014 189.816 360.483C189.816 361.775 189.816 390.527 189.774 391.981C189.681 397.334 189.733 399.872 190.289 401.122C185.965 401.201 181.701 401.191 178.268 401.063H178.275ZM211.427 351.511C211.855 352.706 212.266 363.159 212.38 375.833C212.504 389.674 212.211 398.097 211.845 399.744L211.717 399.768L211.686 399.934C210.097 400.4 201.74 400.887 192.989 401.084C192.782 401.043 192.589 401.008 192.416 400.984C191.677 400.87 191.598 400.86 191.429 400.11C191.173 399.002 191.104 396.733 191.187 392.022C191.214 390.506 191.232 360.787 191.232 360.497C191.232 360.02 191.232 359.527 191.232 359.022C191.156 354.119 191.38 350.631 194.999 350.431H195.804C196.54 350.431 197.634 350.358 198.912 350.275C202.742 350.02 210.709 349.477 211.437 351.511H211.427ZM309.937 365.428C309.902 362.034 309.833 357.679 309.733 352.074C309.657 347.992 309.577 343.52 309.533 339.521C309.93 339.59 310.451 339.656 311.131 339.715L314.951 365.428H309.937ZM325.604 397.375C324.941 397.893 324.071 398.601 323.453 399.126C322.648 398.228 321.146 396.771 321.153 396.688C321.11 396.705 321.071 396.728 321.036 396.757L312.589 339.808C315.054 339.946 318.929 340.026 325.052 340.026C327.635 340.026 330.626 340.026 334.072 339.981L325.604 397.375ZM374.117 367.048H331.52L335.509 339.97C338.81 339.939 342.512 339.894 346.666 339.832C348.932 339.798 350.569 339.774 351.218 339.774C357.907 339.774 363.584 338.627 368.339 336.296L374.117 367.048ZM378.606 225.63C388.483 226.87 396.563 235.044 396.218 243.481C395.956 250.187 391.276 280.525 387.022 301.2C385.143 310.334 382.45 320.639 376.71 327.79C374.5 330.565 371.75 332.863 368.626 334.545L368.018 334.659L368.053 334.846C363.415 337.204 357.827 338.365 351.204 338.365C350.544 338.365 348.904 338.389 346.632 338.423C343.952 338.461 339.601 338.527 334.797 338.568L334.283 338.496V338.575C323.974 338.665 311.801 338.655 309.533 338.116C309.515 336.282 309.505 334.583 309.512 333.102L310.203 333.153H310.258C311.926 333.153 314.578 333.181 317.648 333.209C321.837 333.25 326.785 333.299 331.036 333.299C332.501 333.299 333.882 333.299 335.122 333.278C345.827 333.16 351.895 332.328 357.423 327.904L359.444 326.292C360.887 325.222 362.223 324.015 363.432 322.686C363.857 322.248 364.378 321.709 365.045 321.032C375.111 310.762 384.359 274.088 387.398 262.036C389.425 254 391.38 242.417 384.981 234.633C382.384 231.47 378.81 230.182 372.708 228.787C367.587 227.613 345.502 227.457 336.593 228.062C336.33 227.516 336.071 226.97 335.809 226.432C335.595 225.99 335.381 225.551 335.163 225.116C345.492 224.346 370.598 224.626 378.606 225.63Z" fill="black"/>
</svg>
