<svg width="518" height="518" viewBox="0 0 518 518" fill="none" xmlns="http://www.w3.org/2000/svg">
<path d="M439.658 377.373L439.737 376.91C450.594 376.354 493.547 380.709 493.364 367.213C493.164 352.392 477.965 333.392 461.97 311.774C462.284 311.743 462.729 311.252 463.834 310.313C464.18 310.006 459.804 304.622 459.438 304.066C456.942 300.233 457.401 300.267 455.146 301.932C449.693 290.37 465.571 284.796 458.837 266.124C463.627 254.179 452.967 243.657 436.007 248.412C433.935 247.676 431.694 247.697 430.6 249.382C429.909 250.463 428.01 248.664 424.235 249.852C421.59 250.684 422.332 252.397 420.709 253.892C420.208 254.355 416.752 256.251 416.634 259.29C415.16 260.523 413.668 261.856 412.145 263.306C411.614 263.217 411.077 263.172 410.539 263.171C405.459 263.171 401.343 267.018 401.343 271.767C401.343 272.687 401.501 273.6 401.809 274.467C401.522 274.861 401.243 275.258 400.97 275.666L387.882 264.446C388.376 277.534 367.107 288.812 362.966 296.873C362.648 297.498 362.334 298.102 362.027 298.696L342.443 289.027C336.99 285.425 324.323 276.418 324.061 275.966C324.056 275.953 324.056 275.938 324.061 275.925L328.15 274.75C333.371 273.714 342.622 272.306 350.144 271.363C352.927 271.017 368.792 267.937 375.964 265.699C379.072 265.951 384.667 264.297 387.889 264.432C391.877 264.605 395.738 261.089 397.171 257.65C397.862 256.02 399.958 252.47 402.445 248.457C406.14 246.102 413.723 241.768 412.028 238.404C411.603 237.568 410.598 237.392 409.351 237.575C411.005 234.999 412.362 232.882 413.039 231.767C416.855 225.471 416.734 224.515 412.597 224.598C409.358 224.653 402.479 224.833 400.856 225.081C398.663 225.427 398.328 225.72 394.985 229.992C394.612 230.468 394.232 230.968 393.846 231.491H393.818C386.656 232.654 384.239 232.969 380.322 239.955C379.373 241.647 378.71 242.78 378.164 243.795C359.609 244.385 329.382 247.939 321.046 249.296C307.233 251.516 302.802 249.79 293.236 259.421C282.876 269.857 292.611 286.778 298.095 291.851C299.925 293.547 313.953 307.94 322.127 315.856C317.586 315.717 312.927 315.476 308.134 315.065C280.901 312.73 264.529 310.638 264.529 310.638L264.487 311.38C252.577 293.685 247.97 281.374 229.647 262.529C215.712 248.191 194.122 255.968 179.363 271.069C161.06 289.8 141.842 318.159 128.405 338.665C100.212 342.429 74.0774 345.154 54.5039 345.154C54.5039 346.369 54.4832 347.605 54.4521 348.845C51.3269 349.191 49.0477 349.446 49.0477 349.446C48.8586 350.258 48.5914 351.051 48.25 351.812C48.4123 349.681 48.4917 348.296 48.4399 348.217C39.2989 334.282 44.0956 309.847 26.9567 310.351C24.6982 310.417 19.6425 373.502 18.6307 378.081C18.4581 379.435 45.1558 379.304 45.912 378.199C45.9362 378.164 46.1434 376.061 46.4335 372.984C48.2085 373.122 50.5775 373.26 53.1364 373.395C53.0846 374.776 53.057 376.099 53.057 377.373H272.976L273.017 377.176L320.673 376.413L439.658 377.373ZM451.617 345.257C451.503 345.188 447.5 344.912 445.245 344.763C445.311 344.342 445.356 344.049 445.373 343.914C445.373 343.914 426.528 335.84 420.626 331.572C417.305 329.163 413.802 327.014 410.149 325.145C416.158 318.791 423.365 309.753 429.343 302.059C430.168 305.582 432.899 308.258 434.581 311.86C434.747 312.205 435.458 313.431 436.498 315.189C436.757 315.652 437.078 316.184 437.385 316.681C441.92 324.302 450.453 338.596 452.235 343.662C451.137 341.193 450.163 339.172 449.879 338.793L452.556 345.071C452.535 345.551 452.252 345.651 451.617 345.257ZM188.473 329.627L199.054 328.298L188.207 329.949L188.473 329.627Z" fill="white"/>
<path d="M440.255 378.084L440.338 377.594C442.489 377.522 445.701 377.594 449.344 377.691C452.863 377.774 456.824 377.87 460.899 377.87C473.438 377.87 487.034 376.959 492.034 372C492.691 371.386 493.212 370.64 493.563 369.812C493.914 368.984 494.087 368.092 494.072 367.193C493.889 353.452 481.295 336.565 466.749 317.009C465.513 315.351 464.259 313.663 463.002 311.964C463.158 311.836 463.327 311.687 463.524 311.511C463.721 311.335 463.99 311.1 464.294 310.841C464.936 310.292 464.422 309.512 463.285 307.944C462.55 306.908 461.607 305.71 460.916 304.836C460.502 304.301 460.108 303.8 460.032 303.679C459.742 303.234 459.494 302.843 459.276 302.498C458.288 300.951 457.895 300.309 457.142 300.174C456.569 300.07 456.106 300.343 455.439 300.83C453.64 296.261 455.37 292.673 457.456 288.357C460.164 282.762 463.22 276.429 459.594 266.138C460.758 263.12 461.023 260.077 460.302 257.204C459.059 252.273 455.122 248.623 449.472 247.189C445.328 246.153 440.783 246.329 436.004 247.662C435.263 247.412 434.489 247.271 433.708 247.245C432.05 247.22 430.786 247.821 430.006 249.02C429.672 249.044 429.336 249.015 429.011 248.933C427.359 248.586 425.645 248.67 424.035 249.178C422.129 249.779 421.659 250.857 421.244 251.806C421.034 252.398 420.691 252.934 420.243 253.374C420.195 253.419 420.025 253.54 419.874 253.647C418.772 254.431 416.248 256.23 415.968 258.962C414.623 260.09 413.283 261.289 411.948 262.56C411.49 262.499 411.029 262.468 410.567 262.467C405.107 262.467 400.663 266.642 400.663 271.77C400.663 272.645 400.795 273.514 401.053 274.35C397.213 279.716 395.351 285.1 395.548 290.19C392.72 294.3 393.328 299.228 394.512 302.968C393.873 303.903 393.131 304.87 392.292 305.934C391.256 307.257 390.095 308.752 388.959 310.458L388.593 311.014L363.008 298.368L363.615 297.187C365.055 294.383 368.844 291.005 372.853 287.428C380.181 280.894 388.455 273.514 388.614 265.136C392.627 264.891 396.387 261.403 397.834 257.922C398.487 256.355 400.545 252.88 402.973 248.968L403.871 248.405C408.108 245.749 414.511 241.733 412.67 238.09C412.479 237.724 412.194 237.416 411.844 237.196C411.495 236.976 411.093 236.853 410.681 236.84C412.021 234.744 413.074 233.096 413.654 232.136C416.051 228.186 417 226.21 416.292 224.974C415.75 224.031 414.479 223.859 412.597 223.893C409.897 223.938 402.51 224.114 400.759 224.387C398.256 224.774 397.803 225.257 394.443 229.567C394.125 229.975 393.797 230.403 393.466 230.848C386.404 231.991 383.759 232.423 379.722 239.62C379.349 240.286 379.031 240.863 378.727 241.381C378.354 242.034 378.036 242.593 377.753 243.108C358.705 243.746 328.236 247.431 320.949 248.602C318.076 249.065 315.597 249.358 313.411 249.614C305.078 250.598 300.488 251.137 292.749 258.938C289.479 262.229 287.873 266.38 287.977 271.269C288.157 279.841 293.73 288.778 297.646 292.387C298.371 293.057 301.1 295.84 304.591 299.338C311.957 306.777 316.947 311.77 320.359 315.103C316.412 314.958 312.378 314.726 308.227 314.371C281.322 312.067 264.812 309.968 264.65 309.947L264.373 309.912C261.234 305.188 258.589 300.827 255.985 296.534C249.4 285.67 243.177 275.407 230.179 262.032C225.161 256.852 218.986 254.245 211.834 254.234H211.796C201.177 254.234 188.877 260.34 178.879 270.572C160.618 289.261 141.428 317.537 128.008 338.012C99.8946 341.766 74.0844 344.442 54.5385 344.442H53.8479V345.15C53.8479 346.158 53.8306 347.177 53.8099 348.203C51.4962 348.448 49.7384 348.652 49.1928 348.717C49.1928 348.027 49.1479 347.923 49.0823 347.826C45.7429 342.743 44.2994 336.247 42.9043 329.962C40.5802 319.513 38.3839 309.633 27.5093 309.633C27.3297 309.633 27.164 309.633 26.9671 309.633C26.1073 309.657 25.3648 309.681 23.3446 326.834C22.2257 336.365 21.0274 348.59 20.0639 358.428C19.1177 368.097 18.2993 376.434 17.9712 377.919V377.981C17.9436 378.185 17.9712 378.696 18.7171 378.979C20.2608 379.559 26.5251 379.759 31.9399 379.759H33.2833C45.7947 379.68 46.3093 378.913 46.5303 378.585C46.5993 378.478 46.6649 378.382 47.107 373.751C48.4227 373.847 50.1494 373.954 52.432 374.072C52.394 375.208 52.3733 376.313 52.3733 377.38V378.071H260.008H260.761H273.539L273.583 377.863L320.656 377.111L440.255 378.084ZM48.0014 363.363C48.4987 357.765 48.7957 354.222 48.9614 351.967C49.2791 351.166 49.507 350.555 49.6521 350.092C51.0092 349.933 52.3802 349.778 53.7443 349.633C53.6096 353.939 53.3161 358.331 53.026 362.621C52.7912 366.126 52.5667 369.496 52.4424 372.635C50.4774 372.528 48.6713 372.421 47.2002 372.321C47.4005 370.197 47.6561 367.286 48.0014 363.363ZM55.1912 348.058C55.1912 347.322 55.2189 346.59 55.2223 345.858C74.4677 345.796 99.5976 343.209 126.958 339.58L128.813 339.335C147.419 336.845 167.01 333.889 186.452 330.933L188.58 330.608L191.688 330.132C196.93 329.333 202.11 328.546 207.228 327.773L208.713 327.548C219.874 325.863 230.662 324.268 240.829 322.859C241.001 323.052 241.174 323.239 241.329 323.404L242.072 322.69C249.514 321.654 256.617 320.742 263.279 319.965L261.832 345.482C258.589 345.927 241.657 347.267 222.464 348.679L220.143 348.849C201.119 350.23 180.364 351.673 168.761 352.357L166.603 352.482C163.336 352.665 161.05 352.768 160.09 352.768C147.858 352.768 133.585 353.41 119.088 354.198L117.331 354.294C113.187 354.522 109.008 354.761 104.871 354.985C94.1034 355.6 83.1149 356.228 72.786 356.65L72.0953 356.677L71.3874 356.705C65.5719 356.936 59.9914 357.092 54.7768 357.143C54.9322 354.581 55.0634 352.012 55.1394 349.47C55.1394 349.232 55.1394 348.997 55.1394 348.78L55.1912 348.058ZM390.13 311.225C391.235 309.56 392.333 308.151 393.397 306.784C393.991 306.024 394.561 305.292 395.082 304.573C395.625 305.961 396.289 307.299 397.064 308.572L397.113 308.541C395.255 310.458 394.067 313.908 393.013 318.124C391.222 317.694 389.419 317.317 387.602 316.995C387.617 316.009 387.846 315.038 388.272 314.15C388.873 313.162 389.505 312.181 390.14 311.225H390.13ZM492.646 367.22C492.661 367.932 492.525 368.639 492.247 369.294C491.968 369.949 491.553 370.537 491.029 371.019C484.813 377.149 462.633 376.61 449.368 376.289C446.606 376.22 444.237 376.164 442.31 376.164C441.681 376.164 441.105 376.164 440.583 376.164H440.186C440.324 375.004 440.597 372.728 440.946 369.9C441.543 365.041 442.358 358.552 443.08 353.3C443.553 349.867 443.988 346.963 444.295 345.392H444.416L445.107 345.44L445.818 345.489C448.191 345.647 450.774 345.834 451.344 345.906C451.513 346.023 451.705 346.105 451.906 346.146C452.108 346.186 452.316 346.186 452.518 346.145C454.01 349.598 455.484 353.245 455.65 354.132L457.031 353.877C456.831 352.789 454.683 347.519 452.856 343.392C452.677 342.874 452.421 342.246 452.079 341.483C451.261 339.663 449.966 337.142 448.232 333.989C445.563 329.13 442.241 323.491 439.654 319.14C440.779 318.991 441.892 318.768 442.987 318.473C448.243 317.14 457.563 313.752 459.373 309.657C459.8 310.198 460.199 310.76 460.568 311.342C460.913 311.867 461.148 312.24 461.531 312.378C462.912 314.219 464.252 316.042 465.585 317.834C480.013 337.225 492.476 353.942 492.656 367.22H492.646ZM234.15 353.776C213.575 354.961 179.587 356.608 163.626 357.23L161.381 357.316C158.439 357.427 156.346 357.485 155.4 357.485C142.754 357.485 129.082 358.314 115.839 359.122L115.424 359.146L114.043 359.229C100.102 360.079 85.7808 360.921 72.8481 360.759H72.1402H71.4322H71.1525C65.9725 360.659 62.7368 361.156 59.2903 361.685C57.7881 361.913 56.241 362.151 54.4557 362.355C54.5385 361.108 54.6249 359.851 54.7043 358.59C59.9396 358.542 65.565 358.383 71.415 358.155L72.1056 358.128L72.8136 358.097C83.1736 357.675 94.1759 357.061 104.964 356.432C108.763 356.215 112.561 355.997 116.36 355.786L118.121 355.69C132.971 354.878 147.599 354.205 160.093 354.205C160.666 354.205 162.428 354.118 165.097 353.966L167.28 353.839C178.748 353.148 201.64 351.615 222.143 350.137L225.064 349.926C242.521 348.655 257.702 347.467 261.739 346.942L261.448 352.095C260.008 352.226 258.054 352.247 256.562 352.26C254.241 352.285 252.048 352.305 250.93 352.606C250.374 352.754 246.82 353.024 241.385 353.366C239.275 353.476 236.833 353.621 234.16 353.776H234.15ZM332.839 333.851C333.333 333.851 333.816 333.851 334.303 333.878C336.255 333.934 338.144 334.065 339.922 334.224C343.703 334.593 346.459 334.331 348.497 333.533C348.822 333.41 349.139 333.266 349.446 333.101C349.715 332.963 349.976 332.808 350.227 332.639C353.742 330.221 354.271 325.47 354.944 319.437C355.051 318.47 355.162 317.468 355.289 316.436C355.317 316.201 355.348 315.963 355.379 315.724C355.41 315.486 355.445 315.255 355.479 315.016C355.693 313.486 355.963 311.908 356.322 310.289C356.732 308.434 357.271 306.609 357.935 304.829C358.714 302.754 359.702 300.764 360.884 298.889C360.963 298.761 361.043 298.634 361.129 298.506L361.267 298.599L362.303 299.29L362.151 299.528C360.957 301.394 359.965 303.382 359.192 305.457C358.079 308.549 357.31 311.753 356.899 315.013C356.864 315.248 356.829 315.486 356.798 315.704L356.705 316.411C356.571 317.489 356.453 318.549 356.336 319.585C355.704 325.259 355.148 330.239 351.909 333.129C351.705 333.312 351.491 333.474 351.266 333.65C351.042 333.827 350.759 333.996 350.486 334.158C348.144 335.519 344.76 336.095 339.78 335.609C337.967 335.432 336.037 335.301 334.048 335.263C333.568 335.263 333.084 335.242 332.597 335.239C323.878 335.184 314.236 336.745 308.048 342.619C301.528 348.807 301.024 356.487 304.304 360.338C307.585 364.188 315.01 365.173 326.254 356.619C328.95 354.529 332.007 352.953 335.274 351.97C335.74 351.832 336.203 351.711 336.655 351.601C344.864 349.643 353.172 351.725 361.288 353.766C364.568 354.595 367.794 355.406 370.957 355.928C371.751 356.059 372.542 356.173 373.326 356.273C379.345 356.964 385.067 356.339 390.365 352.388C399.799 345.35 398.28 338.575 395.804 331.979C395.693 331.679 395.576 331.378 395.458 331.074L395.113 330.163L395.03 329.952C394.263 328.101 393.605 326.206 393.058 324.278C392.689 322.94 392.509 321.557 392.523 320.169C392.523 319.934 392.544 319.702 392.565 319.478C392.585 319.254 392.616 318.991 392.654 318.749C392.685 318.577 392.713 318.404 392.751 318.224L392.976 318.276L394.132 318.528C394.094 318.715 394.063 318.901 394.036 319.088C393.998 319.333 393.97 319.578 393.956 319.823C393.956 319.999 393.956 320.169 393.956 320.352C393.929 323.211 395.117 326.253 396.374 329.441C396.567 329.928 396.757 330.418 396.947 330.912C397.061 331.209 397.175 331.506 397.292 331.803C397.41 332.1 397.503 332.387 397.606 332.68C399.903 339.197 400.901 346.335 391.252 353.531C384.953 358.231 378.223 358.546 371.164 357.413C370.367 357.285 369.569 357.14 368.747 356.981C366.195 356.47 363.605 355.821 360.977 355.158C353.172 353.196 345.185 351.19 337.36 352.934C336.89 353.041 336.417 353.162 335.944 353.296C332.748 354.212 329.755 355.729 327.127 357.765C320.621 362.724 315.234 364.606 311.08 364.606C307.557 364.606 304.922 363.256 303.241 361.277C299.584 356.985 299.691 348.631 307.084 341.593C313.652 335.381 323.781 333.764 332.85 333.851H332.839ZM428.455 301.289C428.483 301.496 428.517 301.7 428.559 301.901C422.836 309.256 415.843 318.01 409.98 324.275C405.005 321.79 399.779 319.844 394.391 318.47C395.427 314.409 396.57 311.01 398.273 309.38C398.594 309.322 399.464 309.222 400.379 309.115C406.399 308.42 421.769 306.635 428.465 301.289H428.455ZM435.852 315.503C436.08 315.911 436.38 316.415 436.764 317.036L437.137 317.665C437.33 318.01 437.534 318.331 437.738 318.673C437.768 318.749 437.81 318.819 437.862 318.881C440.486 323.301 443.829 328.954 446.644 334.034C447.794 336.106 448.688 337.791 449.389 339.165L449.303 339.235C449.555 339.556 450.512 341.593 451.606 344.069C451.675 344.273 451.724 344.439 451.758 344.573C451.375 344.49 450.225 344.383 446.053 344.104C446.053 344.066 446.053 344.031 446.053 344.004L446.119 343.472L445.629 343.261C445.442 343.182 426.791 335.17 421.02 330.998C417.925 328.756 414.674 326.737 411.292 324.958C416.911 318.939 423.424 310.8 429.049 303.596C429.671 305.24 430.641 306.728 431.636 308.251C432.493 309.502 433.26 310.812 433.932 312.171C434.115 312.526 434.737 313.604 435.862 315.503H435.852ZM456.185 287.742C453.958 292.349 451.841 296.721 454.607 302.425L454.445 302.463C454.472 302.577 455.136 303.624 455.947 304.819C455.685 305.002 455.398 305.226 455.066 305.485C452.615 307.395 446.879 311.86 436.139 313.176C435.655 312.347 435.324 311.77 435.227 311.56C434.527 310.138 433.726 308.768 432.83 307.46C431.694 305.716 430.627 304.08 430.123 302.215C430.042 301.917 429.977 301.615 429.93 301.31C429.873 300.967 429.839 300.621 429.826 300.274C429.826 300.074 429.826 299.87 429.826 299.663C429.826 299.414 429.854 299.159 429.885 298.896C429.916 298.634 429.954 298.399 430.002 298.143C430.344 296.59 430.927 295.1 431.729 293.726C432.074 293.105 433.224 292.193 434.64 291.171L435.224 290.753L435.797 290.349L436.467 289.879C437.396 289.23 438.39 288.533 439.392 287.807C439.868 287.455 440.344 287.095 440.818 286.727L440.935 286.637L441.464 286.215C441.65 286.067 441.833 285.915 442.013 285.767L442.303 285.521L442.552 285.307C444.624 283.512 446.45 281.529 447.414 279.402C447.91 278.358 448.162 277.215 448.149 276.059C448.067 272.654 449.185 270.589 450.221 270.109C450.419 270.018 450.638 269.984 450.853 270.012C451.069 270.039 451.272 270.127 451.44 270.265C451.445 270.416 451.489 270.563 451.567 270.692C451.646 270.821 451.757 270.927 451.889 271C451.92 271.411 451.941 271.736 451.938 271.846C451.914 272.813 451.848 273.732 451.741 274.609C451.637 275.484 451.482 276.352 451.278 277.209C450.782 279.253 449.947 281.2 448.809 282.969L450 283.733C451.644 281.178 452.697 278.288 453.084 275.275C453.184 274.585 453.253 273.839 453.302 273.082C453.326 272.689 453.343 272.288 453.354 271.877C453.354 271.532 453.26 270.306 453.126 268.731C453.126 268.614 453.105 268.496 453.095 268.386C453.381 267.816 453.868 267.599 454.376 267.374C454.538 267.302 454.7 267.226 454.856 267.139C455.042 267.557 455.201 267.899 455.243 268.037V268.061C455.467 268.752 455.657 269.408 455.823 270.057C455.988 270.707 456.113 271.29 456.216 271.891C456.216 271.946 456.216 272.005 456.241 272.06C456.35 272.713 456.426 273.371 456.468 274.032C456.587 275.887 456.43 277.749 456.002 279.557L457.384 279.879C458.116 276.74 458.105 273.474 457.349 270.341C457.211 269.73 457.048 269.108 456.859 268.472C456.783 268.224 456.703 267.972 456.62 267.719C456.62 267.685 456.6 267.65 456.586 267.616C456.513 267.391 456.241 266.777 455.861 265.944V265.906L455.885 265.868C456.087 265.511 456.36 265.199 456.686 264.95C456.8 264.859 456.941 264.808 457.087 264.805C457.339 264.805 457.732 265.15 458.074 266.086C458.319 266.753 458.534 267.402 458.724 268.034C461.393 276.957 458.637 282.665 456.185 287.742ZM402.144 275.23C402.303 275.009 402.462 274.788 402.628 274.567C402.862 274.253 403.101 273.939 403.353 273.625C406.18 270.093 409.446 266.935 413.07 264.228C413.323 264.038 413.561 263.883 413.761 263.71C413.961 263.537 414.262 263.365 414.452 263.223C414.642 263.082 414.842 262.971 414.987 262.878C415.514 262.56 416.038 262.265 416.558 261.994C417.179 263.122 417.998 264.129 418.976 264.967C418.789 265.433 418.63 265.872 418.516 266.29C418.427 266.604 418.354 266.901 418.295 267.188C418.237 267.564 418.205 267.943 418.199 268.324C418.079 269.5 418.378 270.681 419.041 271.66C419.241 271.939 419.473 272.194 419.732 272.419C419.937 272.604 420.156 272.772 420.388 272.92C420.505 272.993 420.619 273.062 420.733 273.124C421.424 276.332 424.96 277.641 426.884 278.356C427.191 278.47 427.554 278.604 427.758 278.701C428.148 281.495 428.88 282.776 429.788 283.501C430.007 283.37 430.237 283.246 430.479 283.128C430.724 283 430.979 282.88 431.238 282.783H431.273C432.928 282.08 434.742 281.837 436.524 282.08C438.306 282.323 439.989 283.043 441.395 284.164L441.585 284.32L441.17 284.665L441.039 284.775C440.853 284.931 440.663 285.083 440.473 285.235C438.986 284.044 437.135 283.401 435.23 283.415C434.472 283.416 433.717 283.514 432.982 283.705C432.7 283.778 432.421 283.866 432.147 283.967C432.026 284.012 431.901 284.057 431.781 284.109C431.66 284.161 431.456 284.257 431.294 284.337C429.448 285.212 427.97 286.71 427.119 288.567C426.674 289.515 426.431 290.545 426.405 291.592C426.38 292.639 426.572 293.68 426.97 294.649C427.38 295.631 427.997 296.513 428.78 297.235C428.707 297.504 428.648 297.767 428.6 298.026C428.552 298.285 428.507 298.565 428.476 298.824C428.445 299.083 428.431 299.269 428.417 299.487C422.688 305.105 406.399 307.001 400.241 307.709C398.977 307.854 398.342 307.93 397.99 307.999L398.283 307.813C397.401 306.326 396.671 304.753 396.104 303.12C397.786 300.474 398.653 297.801 397.606 294.141C395.959 288.384 397.341 282.255 401.699 275.89C401.833 275.676 401.989 275.458 402.144 275.23ZM200.024 316.08C201.15 316.598 203.926 321.526 206.551 326.44L191.505 328.726L189.964 328.957C194.046 324.064 197.579 319.554 200.024 316.08ZM201.426 315.431C201.471 314.712 200.549 313.659 197.572 310.513C196.222 309.083 194.178 306.918 194.008 306.414L192.627 306.652C192.755 307.402 193.863 308.638 196.557 311.487C197.5 312.482 198.784 313.839 199.499 314.719C199.271 314.812 199.077 314.971 198.94 315.175C196.142 319.164 192.206 324.133 187.868 329.289C179.235 330.601 170.553 331.917 161.944 333.195C163.591 331.468 168.267 325.49 183.255 304.877L184.505 303.151C185.451 301.863 186.314 300.581 187.147 299.352C191.253 293.253 194.495 288.439 203.108 288.439C209.372 288.439 218.896 302.163 225.851 312.185C228.77 316.387 231.339 320.093 233.387 322.472C225.244 323.636 216.759 324.889 208.05 326.212C204.866 320.265 202.89 316.857 201.426 315.431ZM235.058 322.244C232.986 320.01 230.223 316.004 227.001 311.387C219.47 300.536 210.08 287.034 203.094 287.034C193.729 287.034 190.127 292.38 185.959 298.572C185.133 299.797 184.277 301.068 183.351 302.336C183.116 302.653 182.685 303.247 182.094 304.062C165.587 326.751 161.267 332.1 160.549 332.59C160.576 332.572 160.607 332.558 160.639 332.549L160.915 333.35L155.476 334.151C156.857 332.846 161.115 327.493 177.084 305.544C177.667 304.743 178.092 304.162 178.323 303.841L179.311 302.488C184.715 295.049 192.848 283.864 202.476 283.864H202.897C213.274 284.209 225.641 301.787 233.822 313.41C236.084 316.626 238.118 319.509 239.779 321.578C238.218 321.799 236.647 322.016 235.058 322.244ZM53.8064 374.141C53.8064 373.903 53.8064 373.671 53.8272 373.429C53.8479 373.188 53.8479 372.956 53.8548 372.739C53.9687 369.914 54.1621 366.91 54.3693 363.788C56.2928 363.574 57.9332 363.325 59.5183 363.08C63.0476 362.541 66.0968 362.071 71.1387 362.172H71.453C71.6878 362.172 71.9261 362.172 72.1609 362.172H72.8516C85.4804 362.33 99.3973 361.536 113 360.711L114.813 360.6L115.504 360.555C128.854 359.74 142.657 358.898 155.393 358.898C155.935 358.898 157.33 358.856 159.396 358.784L161.861 358.691C178.524 358.038 221.797 356.025 241.457 354.771C246.205 354.467 249.576 354.208 250.861 354.025C251.014 354.007 251.166 353.98 251.316 353.942C252.259 353.69 254.466 353.669 256.597 353.649C258.544 353.649 260.14 353.6 261.386 353.493L261.345 354.25L261.265 355.655L260.071 376.658H53.7512C53.7581 375.843 53.7788 375.001 53.8064 374.141ZM456.893 301.579C457.344 302.099 457.742 302.662 458.081 303.261C458.302 303.606 458.554 304.004 458.848 304.453C458.951 304.611 459.228 304.971 459.798 305.703C460.64 306.784 462.477 309.156 463.019 310.078L462.584 310.461C462.436 310.593 462.287 310.724 462.156 310.834C461.291 309.665 460.424 308.486 459.556 307.298C459.21 306.231 458.364 305.312 457.618 304.594C457.595 304.572 457.569 304.551 457.543 304.532L457.446 304.397C456.925 303.683 456.456 302.931 456.044 302.149C456.307 301.932 456.592 301.741 456.893 301.579ZM449.123 248.56C454.245 249.862 457.819 253.139 458.927 257.539C459.463 259.769 459.392 262.101 458.72 264.294C458.546 264.035 458.316 263.818 458.047 263.66C457.778 263.502 457.477 263.407 457.166 263.382C457.066 263.374 456.966 263.374 456.866 263.382C456.942 262.287 456.81 261.262 455.868 260.357C454.082 258.63 453.25 256.7 452.514 254.98C451.289 252.117 450.132 249.413 445.131 249.413H444.848C444.14 249.413 443.097 249.759 442.085 250.104C441.52 250.303 440.943 250.47 440.359 250.605C439.741 249.779 438.958 249.091 438.059 248.585C441.985 247.732 445.718 247.694 449.123 248.56ZM395.797 292.639C395.908 293.278 396.053 293.911 396.232 294.535C396.592 295.646 396.717 296.819 396.598 297.981C396.479 299.143 396.119 300.267 395.541 301.282C394.84 298.596 394.595 295.457 395.797 292.639ZM371.924 286.381C367.635 290.208 363.93 293.509 362.369 296.548L361.751 297.753L342.878 288.45C338.32 285.428 328.232 278.352 325.359 276.125C328.495 275.237 339.711 273.4 350.254 272.081C352.085 271.853 359.464 270.465 366.423 268.894C370.974 267.858 374.02 267.067 376.092 266.428C376.289 266.428 376.493 266.428 376.703 266.428C378.288 266.428 380.24 266.103 382.229 265.768C383.873 265.455 385.535 265.244 387.205 265.136C387.022 272.903 379.007 280.065 371.924 286.381ZM379.414 243.07L379.97 242.085C380.267 241.564 380.599 240.984 380.972 240.317C384.408 234.188 386.463 233.455 392.288 232.482L393.279 232.319L393.708 232.247L393.963 232.209L394.271 232.164C394.852 232.077 395.44 232.032 396.028 232.029C398.197 232.029 399.371 232.72 399.533 233.348C399.768 234.267 398.214 235.894 394.253 237.292C394.097 237.345 393.949 237.421 393.815 237.517C392.751 237.575 391.542 237.662 390.361 237.772C390.054 237.8 389.747 237.831 389.446 237.865C389.146 237.9 388.832 237.934 388.535 237.969C387.649 238.071 386.77 238.219 385.9 238.411C385.789 238.433 385.684 238.478 385.591 238.543C385.498 238.608 385.42 238.691 385.361 238.787C385.445 238.648 385.58 238.547 385.737 238.504L385.872 239.913C386.041 239.905 386.206 239.852 386.349 239.761C386.694 239.685 387.074 239.613 387.512 239.544C387.802 239.499 388.11 239.454 388.434 239.412C388.759 239.371 389.039 239.336 389.356 239.299C391.629 239.036 393.913 238.89 396.201 238.86C397.582 238.926 397.928 239.143 397.99 239.292C398.187 239.734 397.679 241.999 395.572 242.949C395.037 243.19 394.609 243.377 394.26 243.529C393.749 243.594 392.879 243.684 391.981 243.777L391.125 243.864C389.132 244.068 387.385 244.251 386.097 244.416L385.775 244.458L385.181 244.544C384.798 244.603 384.491 244.662 384.256 244.717L384.09 244.758C383.964 244.791 383.836 244.818 383.707 244.838C382.835 244.987 381.981 245.225 381.158 245.549L381.687 246.861C382.191 246.66 382.711 246.499 383.241 246.381C383.517 246.316 383.765 246.271 383.969 246.233L384.173 246.191C384.279 246.173 384.384 246.149 384.487 246.119C384.7 246.063 384.915 246.019 385.133 245.988C386.473 245.763 389.187 245.487 391.27 245.273L391.846 245.214L392.558 245.142C392.625 245.268 392.722 245.376 392.841 245.456L392.862 245.473C392.857 245.809 392.767 246.139 392.599 246.43C392.513 246.623 392.402 246.844 392.254 247.12C391.953 247.61 391.534 248.016 391.035 248.301C390.879 248.4 390.719 248.491 390.555 248.574C390.177 248.767 389.787 248.934 389.387 249.075C389.018 249.21 388.652 249.327 388.307 249.42C386.483 249.379 384.031 250.363 381.997 251.206L381.769 251.299L380.91 251.644C380.519 251.803 380.153 251.941 379.874 252.031C379.744 252.077 379.609 252.111 379.473 252.131H379.311L379.055 252.28L379.4 252.863L379.559 253.146L379.59 253.533C379.666 253.533 379.749 253.512 379.839 253.495C380.182 253.419 380.518 253.315 380.844 253.184C381.248 253.032 381.731 252.839 382.322 252.59C383.417 252.138 384.739 251.585 385.979 251.209C386.078 251.357 386.214 251.476 386.373 251.554C387.094 251.931 387.063 252.266 387.063 252.407C386.856 254.365 380.685 257.884 379.387 258.243C378.178 258.591 377.071 259.223 376.158 260.088C375.544 260.633 375.079 261.326 374.808 262.101C374.742 262.325 374.717 262.559 374.732 262.792C374.737 262.874 374.748 262.956 374.766 263.037C374.63 263.422 374.571 263.83 374.59 264.238C374.445 264.14 374.306 264.031 374.176 263.914C373.988 263.738 373.82 263.543 373.675 263.33C373.512 263.103 373.376 262.857 373.271 262.598C372.135 259.735 374.224 255.101 375.474 252.331C375.861 251.478 376.165 250.805 376.327 250.304C377.284 247.376 377.833 246.022 378.637 244.482C378.851 244.05 379.107 243.588 379.4 243.07H379.414ZM411.42 238.739C412.497 240.873 408.101 244.03 404.72 246.209C406.447 243.446 408.27 240.628 409.8 238.238C410.577 238.159 411.175 238.28 411.406 238.739H411.42ZM305.582 298.344C302.094 294.825 299.342 292.045 298.593 291.351C294.877 287.897 289.565 279.399 289.393 271.242C289.3 266.753 290.774 262.954 293.754 259.939C301.145 252.497 305.299 251.996 313.577 251.033C315.776 250.774 318.273 250.48 321.174 249.997C329.883 248.595 358.684 245.242 377 244.537C376.194 246.263 375.512 248.043 374.96 249.866C374.821 250.29 374.514 250.967 374.162 251.748C372.822 254.725 370.577 259.69 371.934 263.123C372.221 263.847 372.676 264.492 373.26 265.005C373.37 265.239 373.523 265.448 373.713 265.623C366.295 267.647 353.269 270.261 350.061 270.662C344.422 271.352 338.054 272.295 333.026 273.145C330.919 273.49 329.293 273.797 328.022 274.053C326.375 274.236 319.993 275.286 316.571 277.365L317.306 278.573C318.936 277.586 321.315 276.847 323.467 276.325C323.557 276.481 323.933 277.016 333.92 284.019C337.184 286.312 339.445 287.873 341.037 288.937L322.68 314.882L322.825 315.186H322.441C317.403 310.282 310.234 303.04 305.582 298.344ZM179.881 271.563C189.619 261.6 201.54 255.653 211.786 255.653H211.821C218.579 255.653 224.411 258.143 229.153 263.023C242.037 276.284 248.219 286.478 254.763 297.27C257.525 301.849 260.368 306.511 263.786 311.601L263.393 318.528C256.486 319.33 249.148 320.286 241.426 321.353C239.72 319.323 237.496 316.173 234.986 312.599C226.142 300.036 214.031 282.831 202.949 282.451C192.389 282.106 183.828 293.847 178.168 301.652L177.184 303.002C176.952 303.316 176.524 303.903 175.944 304.705C159.427 327.41 155.103 332.76 154.385 333.25C154.414 333.234 154.444 333.22 154.475 333.208L154.82 334.244C146.373 335.477 138.016 336.662 129.845 337.767C143.203 317.434 162.006 289.855 179.877 271.563H179.881Z" fill="black"/>
</svg>
